<svg xmlns="http://www.w3.org/2000/svg" width="50.969" height="56" viewBox="0 0 50.969 56">
  <metadata><?xpacket begin="﻿" id="W5M0MpCehiHzreSzNTczkc9d"?>
<x:xmpmeta xmlns:x="adobe:ns:meta/" x:xmptk="Adobe XMP Core 5.6-c140 79.160451, 2017/05/06-01:08:21        ">
   <rdf:RDF xmlns:rdf="http://www.w3.org/1999/02/22-rdf-syntax-ns#">
      <rdf:Description rdf:about=""/>
   </rdf:RDF>
</x:xmpmeta>
                                                                                                    
                                                                                                    
                                                                                                    
                                                                                                    
                                                                                                    
                                                                                                    
                                                                                                    
                                                                                                    
                                                                                                    
                                                                                                    
                                                                                                    
                                                                                                    
                                                                                                    
                                                                                                    
                                                                                                    
                                                                                                    
                                                                                                    
                                                                                                    
                                                                                                    
                                                                                                    
                           
<?xpacket end="w"?></metadata>
<defs>
    <style>
      .cls-1 {
        fill: #666;
        fill-rule: evenodd;
      }
    </style>
  </defs>
  <path id="icon" class="cls-1" d="M481.477,856A25.547,25.547,0,0,0,456,881.56a24.347,24.347,0,0,0,8.107,18.42v10.853a1.169,1.169,0,0,0,.583,1.013,1.155,1.155,0,0,0,1.161-.007l9.312-5.51A25.551,25.551,0,1,0,481.477,856Zm0,48.788a23.156,23.156,0,0,1-6.177-.836,1.146,1.146,0,0,0-.893.119l-7.984,4.723v-9.345a1.17,1.17,0,0,0-.407-0.888,22.042,22.042,0,0,1-7.7-17A23.162,23.162,0,1,1,481.477,904.788Zm10.793-23.637-6.841-1.945-3.952-5.954-3.951,5.954-6.841,1.945,4.4,5.626-0.277,7.157,6.67-2.478,6.671,2.477-0.276-7.156Zm-10.793,7.82-4.22,1.566,0.175-4.528-2.785-3.561,4.33-1.231,2.5-3.767,2.5,3.767,4.33,1.231-2.784,3.561,0.175,4.529ZM500.1,878.134l-6.841-1.947-3.952-5.953-4.408,6.642,1.925,1.3,2.483-3.741,2.5,3.768,4.329,1.232-2.783,3.56,0.175,4.529-3.821-1.419-0.8,2.19,7.07,2.624-0.276-7.156Zm-26.458-3.7,2.483,3.741,1.925-1.3-4.408-6.642-3.952,5.953-6.841,1.947,4.4,5.625-0.276,7.156,7.071-2.624-0.8-2.19-3.822,1.419,0.176-4.529-2.784-3.56,4.329-1.232Z" transform="translate(-456 -856)"/>
</svg>
