<svg xmlns="http://www.w3.org/2000/svg" width="51.94" height="56" viewBox="0 0 51.94 56">
  <metadata><?xpacket begin="﻿" id="W5M0MpCehiHzreSzNTczkc9d"?>
<x:xmpmeta xmlns:x="adobe:ns:meta/" x:xmptk="Adobe XMP Core 5.6-c140 79.160451, 2017/05/06-01:08:21        ">
   <rdf:RDF xmlns:rdf="http://www.w3.org/1999/02/22-rdf-syntax-ns#">
      <rdf:Description rdf:about=""/>
   </rdf:RDF>
</x:xmpmeta>
                                                                                                    
                                                                                                    
                                                                                                    
                                                                                                    
                                                                                                    
                                                                                                    
                                                                                                    
                                                                                                    
                                                                                                    
                                                                                                    
                                                                                                    
                                                                                                    
                                                                                                    
                                                                                                    
                                                                                                    
                                                                                                    
                                                                                                    
                                                                                                    
                                                                                                    
                                                                                                    
                           
<?xpacket end="w"?></metadata>
<defs>
    <style>
      .cls-1 {
        fill: #666;
        fill-rule: evenodd;
      }
    </style>
  </defs>
  <path id="icon" class="cls-1" d="M1215.77,877.9a22.343,22.343,0,0,0-44.68.192,24.978,24.978,0,0,0,4.66,15.5,28.236,28.236,0,0,1,4.55,9.628,43.566,43.566,0,0,1,.89,8.777h2.33a46.724,46.724,0,0,0-.96-9.322,30.351,30.351,0,0,0-4.91-10.422,23.122,23.122,0,0,1-4.24-14.053,20.021,20.021,0,0,1,40.04,0v0.3l5.6,10.162h-5v10.5h-9.29V912h2.32V901.5h9.3V891H1223Zm-6.37,3.235V875.2l-3.79-.636a12.8,12.8,0,0,0-1.12-2.7l2.24-3.145-4.18-4.2-3.14,2.247a12.541,12.541,0,0,0-2.69-1.123l-0.63-3.81h-5.91l-0.64,3.81a12.979,12.979,0,0,0-2.69,1.123l-3.13-2.247-4.18,4.2,2.24,3.145a12.293,12.293,0,0,0-1.12,2.7l-3.8.636v5.933l3.8,0.635a12.273,12.273,0,0,0,1.12,2.7l-2.24,3.145,4.18,4.2,3.13-2.246a12.976,12.976,0,0,0,2.69,1.122l0.64,3.81h5.91l0.63-3.81a12.538,12.538,0,0,0,2.69-1.122l3.14,2.246,4.18-4.2-2.24-3.145a12.775,12.775,0,0,0,1.12-2.7Zm-5.7-1.412-0.16.769a10.754,10.754,0,0,1-1.42,3.414l-0.42.664,1.99,2.8-1.39,1.4-2.79-2-0.66.423a10.543,10.543,0,0,1-3.4,1.419l-0.77.17-0.56,3.387h-1.97l-0.57-3.387-0.76-.17a10.452,10.452,0,0,1-3.4-1.419l-0.66-.423-2.79,2-1.4-1.4,1.99-2.8-0.42-.664a10.731,10.731,0,0,1-1.41-3.414l-0.17-.769-3.37-.565v-1.98l3.37-.564,0.17-.77a10.717,10.717,0,0,1,1.41-3.413l0.42-.665-1.99-2.8,1.4-1.4,2.79,2,0.66-.424a10.472,10.472,0,0,1,3.4-1.418l0.76-.17,0.57-3.388h1.97l0.56,3.388,0.77,0.17a10.563,10.563,0,0,1,3.4,1.418l0.66,0.424,2.79-2,1.39,1.4-1.99,2.8,0.42,0.665a10.74,10.74,0,0,1,1.42,3.413l0.16,0.77,3.38,0.564v1.98Zm-10.57-8.656a7.1,7.1,0,1,0,7.08,7.1A7.093,7.093,0,0,0,1193.13,871.065Zm0,11.87a4.769,4.769,0,1,1,4.75-4.769A4.765,4.765,0,0,1,1193.13,882.935Z" transform="translate(-1171.06 -856)"/>
</svg>
