<svg xmlns="http://www.w3.org/2000/svg" width="48.937" height="56" viewBox="0 0 48.937 56">
  <metadata><?xpacket begin="﻿" id="W5M0MpCehiHzreSzNTczkc9d"?>
<x:xmpmeta xmlns:x="adobe:ns:meta/" x:xmptk="Adobe XMP Core 5.6-c140 79.160451, 2017/05/06-01:08:21        ">
   <rdf:RDF xmlns:rdf="http://www.w3.org/1999/02/22-rdf-syntax-ns#">
      <rdf:Description rdf:about=""/>
   </rdf:RDF>
</x:xmpmeta>
                                                                                                    
                                                                                                    
                                                                                                    
                                                                                                    
                                                                                                    
                                                                                                    
                                                                                                    
                                                                                                    
                                                                                                    
                                                                                                    
                                                                                                    
                                                                                                    
                                                                                                    
                                                                                                    
                                                                                                    
                                                                                                    
                                                                                                    
                                                                                                    
                                                                                                    
                                                                                                    
                           
<?xpacket end="w"?></metadata>
<defs>
    <style>
      .cls-1 {
        fill: #666;
        fill-rule: evenodd;
      }
    </style>
  </defs>
  <path id="icon" class="cls-1" d="M836.046,856h2.225v4.667h-2.225V856Zm-12.091,4.02,1.927-1.167,2.225,4.041-1.927,1.167Zm-8.552,9.821,1.113-2.021,3.854,2.334-1.113,2.021ZM812.68,880.5h4.451v2.333H812.68V880.5Zm2.722,12.989,3.854-2.333,1.112,2.02-3.854,2.333Zm38.541-.311,1.113-2.02,3.854,2.333-1.113,2.021Zm3.243-12.678h4.451v2.333h-4.451V880.5Zm-3.238-10.344,3.854-2.332,1.113,2.02-3.855,2.333Zm-7.74-7.262,2.225-4.041,1.927,1.166-2.225,4.042Zm7.64,17.606a17.914,17.914,0,0,0-5.563-13.044,16.059,16.059,0,0,0-13.035-4.344c-7.608.886-13.775,7.316-14.664,15.287a18.029,18.029,0,0,0,2.493,11.487,34.883,34.883,0,0,1,4.145,10.447h-3.418v2.333h3.874c0.127,0.77.235,1.546,0.318,2.333h-3.079v2.334h3.269c0.038,0.751.069,1.5,0.069,2.268V912h17.8v-2.892c0-.592.033-1.183,0.062-1.774H849.4V905h-3.083q0.134-1.167.344-2.333h3.852v-2.333h-3.356a43.331,43.331,0,0,1,4.389-10.969A18.079,18.079,0,0,0,853.848,880.5Zm-10.014,28.607v0.559H830.482V909.6c0-.763-0.033-1.516-0.07-2.268H843.9C843.868,907.924,843.834,908.515,843.834,909.107ZM844.076,905H830.233q-0.118-1.179-.3-2.333H844.4Q844.2,903.832,844.076,905Zm0.783-4.666H829.51a37.4,37.4,0,0,0-4.556-11.7,15.622,15.622,0,0,1-2.157-9.96,14.864,14.864,0,0,1,12.7-13.241,13.942,13.942,0,0,1,11.305,3.765,15.706,15.706,0,0,1,2.827,18.984A45.429,45.429,0,0,0,844.859,900.333Z" transform="translate(-812.688 -856)"/>
</svg>
